<svg width="30" height="31" fill="none" xmlns="http://www.w3.org/2000/svg"><path d="M30 15.091C30 6.757 23.284 0 15 0 6.716 0 0 6.757 0 15.091 0 22.623 5.484 28.867 12.656 30V19.455h-3.81V15.09h3.81v-3.325c0-3.782 2.24-5.873 5.666-5.873 1.641 0 3.358.295 3.358.295v3.714h-1.892c-1.862 0-2.444 1.163-2.444 2.358v2.831h4.16l-.665 4.364h-3.495V30C24.515 28.869 30 22.625 30 15.091z" fill="#32407B"/><path d="M20.839 19.338l.664-4.337h-4.16v-2.813c0-1.186.58-2.344 2.445-2.344h1.892V6.153s-1.717-.294-3.358-.294c-3.425 0-5.666 2.076-5.666 5.837v3.306h-3.81v4.336h3.81V29.82c.764.12 1.546.182 2.344.182.797 0 1.58-.064 2.343-.182V19.338h3.496z" fill="#fff"/></svg>