<svg width="30" height="30" fill="none" xmlns="http://www.w3.org/2000/svg"><circle cx="15" cy="15" r="15" fill="#32407B"/><path d="M11.975 23c7.17 0 11.092-6.155 11.092-11.492 0-.175-.004-.35-.012-.522A8.09 8.09 0 0 0 25 8.893a7.562 7.562 0 0 1-2.239.636 4.032 4.032 0 0 0 1.715-2.234 7.655 7.655 0 0 1-2.476.98A3.832 3.832 0 0 0 19.155 7c-2.153 0-3.899 1.809-3.899 4.039 0 .317.034.625.101.92-3.24-.168-6.112-1.775-8.035-4.22a4.14 4.14 0 0 0-.528 2.03c0 1.402.689 2.64 1.735 3.363a3.768 3.768 0 0 1-1.765-.505l-.001.051c0 1.956 1.344 3.59 3.127 3.96a3.777 3.777 0 0 1-1.76.07c.496 1.604 1.935 2.772 3.641 2.805A7.649 7.649 0 0 1 6 21.186 10.757 10.757 0 0 0 11.976 23" fill="#fff"/></svg>