<svg width="30" height="30" fill="none" xmlns="http://www.w3.org/2000/svg"><circle cx="15" cy="15" r="15" fill="#32407B"/><path d="M24.524 10.226a2.498 2.498 0 0 0-1.757-1.757c-1.54-.42-7.74-.42-7.74-.42s-6.2.013-7.74.433a2.498 2.498 0 0 0-1.758 1.757C5.122 11.779 5.122 15 5.122 15s0 3.221.42 4.774c.23.853.904 1.528 1.757 1.757 1.54.42 7.74.42 7.74.42s6.2 0 7.741-.42a2.498 2.498 0 0 0 1.757-1.757c.42-1.54.42-4.774.42-4.774s-.012-3.221-.433-4.774z" fill="#fff"/><path d="M13.054 17.98L18.197 15l-5.143-2.979v5.958z" fill="#32407B"/></svg>