<svg width="30" height="30" viewBox="0 0 30 30" fill="none" xmlns="http://www.w3.org/2000/svg">
<path fill-rule="evenodd" clip-rule="evenodd" d="M15 30C23.2843 30 30 23.2843 30 15C30 6.71573 23.2843 0 15 0C6.71573 0 0 6.71573 0 15C0 23.2843 6.71573 30 15 30ZM12.7653 22.074L13.0631 17.886L20.7335 10.9988C21.0672 10.7033 20.6615 10.5398 20.2152 10.8353L10.7327 16.7685L6.6504 15.4988C5.76238 15.2235 5.74588 14.616 6.83565 14.193L22.8035 8.0798C23.5431 7.80455 24.1896 8.2433 23.9488 9.3653L23.9481 9.36605L21.2315 22.095C21.0267 22.9935 20.492 23.2162 19.733 22.7932L15.5944 19.7625L13.5971 21.6712C13.3758 21.891 13.1913 22.074 12.7653 22.074Z" fill="#CACFE3"/>
</svg>
