<svg width="12" height="12" fill="none" xmlns="http://www.w3.org/2000/svg"><path d="M11.657 1.64a.452.452 0 0 0-.64 0L5.592 7.05 3.634 4.925a.452.452 0 0 0-.665.613L5.245 8.01c.083.09.2.143.323.146h.01c.12 0 .234-.048.32-.132l5.758-5.744a.452.452 0 0 0 0-.64z" fill="#32407B"/><path d="M11.548 5.548a.452.452 0 0 0-.453.452A5.101 5.101 0 0 1 6 11.095 5.101 5.101 0 0 1 .905 6 5.101 5.101 0 0 1 6 .905.452.452 0 1 0 6 0C2.692 0 0 2.692 0 6s2.692 6 6 6 6-2.692 6-6a.452.452 0 0 0-.452-.452z" fill="#69D5DD"/></svg>