<svg width="260" height="65" viewBox="0 0 260 65" fill="none" xmlns="http://www.w3.org/2000/svg">
    <path d="M32.6549 0C50.681 0 65.3098 14.5594 65.3098 32.5C65.3098 50.4406 50.681 65 32.6549 65C14.6287 65 0 50.4804 0 32.5C0 14.5196 14.6287 0 32.6549 0Z"
          fill="#32407B"/>
    <path d="M32.6549 5.01224C47.9232 5.01224 60.3137 17.3439 60.3137 32.5398C60.3137 47.7356 47.9232 60.0673 32.6549 60.0673C17.3867 60.0673 4.99622 47.7356 4.99622 32.5398C5.03619 17.3042 17.3867 5.01224 32.6549 5.01224Z"
          fill="#32407B"/>
    <path d="M32.6549 60.6242C17.0669 60.6242 4.39661 48.0141 4.39661 32.5C4.39661 16.9859 17.1068 4.37576 32.6549 4.37576C48.2429 4.37576 60.9131 16.9859 60.9131 32.5C60.9131 48.0141 48.2429 60.6242 32.6549 60.6242ZM32.6549 5.60893C17.7463 5.60893 5.63565 17.6622 5.63565 32.5C5.63565 47.3378 17.7463 59.3911 32.6549 59.3911C47.5634 59.3911 59.6741 47.3378 59.6741 32.5C59.7141 17.6622 47.5634 5.60893 32.6549 5.60893Z"
          fill="white"/>
    <path d="M44.6457 43.7179H20.6641C20.3444 43.7179 20.0646 43.4394 20.0646 43.1212V22.1573C20.0646 18.6567 22.9024 15.8323 26.4197 15.8323H38.8901C42.4074 15.8323 45.2452 18.6567 45.2452 22.1573V43.1212C45.2452 43.4394 44.9654 43.7179 44.6457 43.7179ZM21.3036 42.4847H44.0461V22.1573C44.0461 19.3329 41.7279 17.0655 38.9301 17.0655H26.4197C23.5819 17.0655 21.3036 19.3727 21.3036 22.1573V42.4847Z"
          fill="white"/>
    <path d="M26.2598 39.9786C24.8608 39.9786 23.7417 38.8647 23.7417 37.4725C23.7417 36.0802 24.8608 34.9663 26.2598 34.9663C27.6587 34.9663 28.7778 36.0802 28.7778 37.4725C28.7778 38.825 27.6587 39.9786 26.2598 39.9786ZM26.2598 36.1597C25.5403 36.1597 24.9408 36.7564 24.9408 37.4725C24.9408 38.1885 25.5403 38.7852 26.2598 38.7852C26.9792 38.7852 27.5787 38.1885 27.5787 37.4725C27.5388 36.7166 26.9792 36.1597 26.2598 36.1597Z"
          fill="white"/>
    <path d="M39.09 39.9786C37.691 39.9786 36.5719 38.8647 36.5719 37.4725C36.5719 36.0802 37.691 34.9663 39.09 34.9663C40.4889 34.9663 41.608 36.0802 41.608 37.4725C41.608 38.825 40.4889 39.9786 39.09 39.9786ZM39.09 36.1597C38.3705 36.1597 37.771 36.7564 37.771 37.4725C37.771 38.1885 38.3705 38.7852 39.09 38.7852C39.8094 38.7852 40.4089 38.1885 40.4089 37.4725C40.369 36.7166 39.8094 36.1597 39.09 36.1597Z"
          fill="white"/>
    <path d="M36.292 20.2876H29.0176C28.6979 20.2876 28.4181 20.0092 28.4181 19.6909C28.4181 19.3727 28.6979 19.0942 29.0176 19.0942H36.292C36.6118 19.0942 36.8916 19.3727 36.8916 19.6909C36.9315 20.0489 36.6518 20.2876 36.292 20.2876Z"
          fill="white"/>
    <path d="M44.2859 49.5257C44.0861 49.5257 43.8862 49.4461 43.8063 49.287L39.9293 43.8372C39.7294 43.5587 39.8093 43.2007 40.0891 43.0018C40.3689 42.8029 40.7286 42.8825 40.9285 43.1609L44.8055 48.6107C45.0054 48.8892 44.9254 49.2472 44.6456 49.4461C44.5657 49.4859 44.4058 49.5257 44.2859 49.5257Z"
          fill="white"/>
    <path d="M21.0239 49.5257C20.904 49.5257 20.7841 49.4859 20.6642 49.4064C20.3844 49.2075 20.3444 48.8494 20.5043 48.571L24.3813 43.1212C24.5811 42.8427 24.9409 42.7632 25.2206 42.962C25.5004 43.1609 25.5804 43.519 25.3805 43.7974L21.5035 49.2472C21.4236 49.4064 21.2237 49.5257 21.0239 49.5257Z"
          fill="white"/>
    <path d="M21.9831 48.1732C21.8632 48.1732 21.7433 48.1334 21.6234 48.0538C21.3436 47.8549 21.3036 47.4969 21.4635 47.2185L24.3813 43.1212C24.5811 42.8427 24.9408 42.7632 25.2206 42.962C25.5004 43.1609 25.5803 43.519 25.3805 43.7974L22.4627 47.8947C22.3828 48.0538 22.183 48.1732 21.9831 48.1732Z"
          fill="white"/>
    <path d="M44.6457 24.9419H20.6641C20.3444 24.9419 20.0646 24.6634 20.0646 24.3452C20.0646 24.0269 20.3444 23.7485 20.6641 23.7485H44.6457C44.9654 23.7485 45.2452 24.0269 45.2452 24.3452C45.2452 24.6634 44.9654 24.9021 44.6457 24.9419Z"
          fill="white"/>
    <path d="M44.6457 32.5796H20.6641C20.3444 32.5796 20.0646 32.3011 20.0646 31.9829C20.0646 31.6646 20.3444 31.3862 20.6641 31.3862H44.6457C44.9654 31.3862 45.2452 31.6646 45.2452 31.9829C45.2452 32.3011 44.9654 32.5796 44.6457 32.5796Z"
          fill="white"/>
    <path d="M26.2598 32.5796C26.0999 32.5796 25.98 32.5398 25.8601 32.4204C25.5803 32.2215 25.5803 31.8238 25.7802 31.5851L28.5381 28.4425C28.7779 28.2038 29.1376 28.164 29.3774 28.4027C29.6172 28.6414 29.6572 28.9994 29.4174 29.2381L26.6595 32.3807C26.5796 32.5 26.4197 32.5796 26.2598 32.5796Z"
          fill="white"/>
    <path d="M29.897 32.5796C29.7372 32.5796 29.6173 32.5398 29.4974 32.4204C29.2575 32.1818 29.2176 31.8237 29.4574 31.5851L35.0131 25.2999C35.2529 25.0612 35.6127 25.0214 35.8525 25.2601C36.0923 25.4988 36.1323 25.8568 35.8924 26.0955L30.3367 32.3807C30.2168 32.5 30.0569 32.5796 29.897 32.5796Z"
          fill="white"/>
    <path d="M41.4082 45.6273H23.9017C23.5819 45.6273 23.3021 45.3488 23.3021 45.0306C23.3021 44.7124 23.5819 44.4339 23.9017 44.4339H41.4082C41.728 44.4339 42.0077 44.7124 42.0077 45.0306C42.0477 45.3488 41.7679 45.6273 41.4082 45.6273Z"
          fill="white"/>
    <path d="M43.3267 48.1732H21.9831C21.6633 48.1732 21.3835 47.8947 21.3835 47.5765C21.3835 47.2583 21.6633 46.9798 21.9831 46.9798H43.3267C43.6464 46.9798 43.9262 47.2583 43.9262 47.5765C43.9662 47.8947 43.6864 48.1732 43.3267 48.1732Z"
          fill="white"/>
    <path d="M32.6549 56.9247C19.1453 56.9247 8.11377 45.9853 8.11377 32.5C8.11377 19.0545 19.1053 8.07529 32.6549 8.07529C46.1645 8.07529 57.196 19.0147 57.196 32.5C57.196 45.9853 46.2045 56.9247 32.6549 56.9247ZM32.6549 9.30846C19.7848 9.30846 9.35282 19.7307 9.35282 32.5C9.35282 45.3091 19.8248 55.6916 32.6549 55.6916C45.525 55.6916 55.957 45.2693 55.957 32.5C55.9969 19.691 45.525 9.30846 32.6549 9.30846Z"
          fill="white"/>
    <path d="M84.455 24.9021C84.455 17.8611 89.8509 12.8091 97.1253 12.8091C100.962 12.8091 104.28 14.2013 106.478 16.7472L103.64 19.4125C101.922 17.5826 99.8032 16.6677 97.3252 16.6677C92.4089 16.6677 88.8916 20.0887 88.8916 24.9419C88.8916 29.795 92.4489 33.216 97.3252 33.216C99.8032 33.216 101.922 32.3011 103.64 30.4315L106.478 33.1365C104.28 35.6824 100.962 37.0747 97.0853 37.0747C89.8509 36.9951 84.455 31.9431 84.455 24.9021Z"
          fill="currentColor"/>
    <path d="M107.677 27.6867C107.677 22.3164 111.714 18.4976 117.27 18.4976C122.865 18.4976 126.902 22.3164 126.902 27.6867C126.902 33.0569 122.865 36.9155 117.27 36.9155C111.754 36.9155 107.677 33.0569 107.677 27.6867ZM122.666 27.6867C122.666 24.2656 120.387 22.0777 117.31 22.0777C114.272 22.0777 111.954 24.2656 111.954 27.6867C111.954 31.1077 114.232 33.2956 117.31 33.2956C120.347 33.2956 122.666 31.1077 122.666 27.6867Z"
          fill="currentColor"/>
    <path d="M129.94 13.2466C129.94 11.8146 131.099 10.7405 132.658 10.7405C134.217 10.7405 135.376 11.7748 135.376 13.1671C135.376 14.6389 134.257 15.7925 132.658 15.7925C131.099 15.7528 129.94 14.6389 129.94 13.2466ZM130.54 18.6965H134.776V36.6371H130.54V18.6965Z"
          fill="currentColor"/>
    <path d="M157.639 26.3739V36.6769H153.402V26.9308C153.402 23.7485 151.803 22.1971 149.125 22.1971C146.128 22.1971 144.089 24.0269 144.089 27.6071V36.6769H139.852V18.6964H143.889V21.0037C145.288 19.3727 147.487 18.4976 150.125 18.4976C154.401 18.4976 157.639 20.9639 157.639 26.3739Z"
          fill="currentColor"/>
    <path d="M184.698 36.6769L184.658 21.0832L176.904 33.9718H174.945L167.151 21.2821V36.6769H162.955V13.1273H166.592L175.985 28.7209L185.218 13.1273H188.815L188.855 36.6769H184.698Z"
          fill="currentColor"/>
    <path d="M211.277 29.0392H197.128C197.648 31.6646 199.846 33.3354 202.964 33.3354C205.002 33.3354 206.561 32.6989 207.88 31.3862L210.158 33.9718C208.52 35.8813 206.002 36.9155 202.884 36.9155C196.849 36.9155 192.932 33.0569 192.932 27.6867C192.932 22.3562 196.889 18.4976 202.244 18.4976C207.52 18.4976 211.357 22.1573 211.357 27.7662C211.357 28.1242 211.317 28.6414 211.277 29.0392ZM197.088 26.2546H207.321C207.001 23.6689 205.002 21.8788 202.204 21.8788C199.487 21.8788 197.488 23.6291 197.088 26.2546Z"
          fill="currentColor"/>
    <path d="M225.826 35.6824C224.827 36.478 223.308 36.8758 221.789 36.8758C217.832 36.8758 215.554 34.8072 215.554 30.8292V22.1971H212.596V18.8158H215.554V14.7583H219.791V18.8556H224.627V22.2368H219.791V30.7895C219.791 32.5398 220.67 33.4945 222.309 33.4945C223.188 33.4945 224.028 33.2558 224.667 32.7387L225.826 35.6824Z"
          fill="currentColor"/>
    <path d="M239.296 18.4976V22.5153C238.936 22.4357 238.616 22.396 238.297 22.396C235.099 22.396 233.061 24.2656 233.061 27.9253V36.6371H228.824V18.6964H232.861V21.3219C234.1 19.4523 236.298 18.4976 239.296 18.4976Z"
          fill="currentColor"/>
    <path d="M240.775 27.6867C240.775 22.3164 244.812 18.4976 250.367 18.4976C255.963 18.4976 260 22.3164 260 27.6867C260 33.0569 255.963 36.9155 250.367 36.9155C244.812 36.9155 240.775 33.0569 240.775 27.6867ZM255.723 27.6867C255.723 24.2656 253.445 22.0777 250.367 22.0777C247.33 22.0777 245.012 24.2656 245.012 27.6867C245.012 31.1077 247.29 33.2956 250.367 33.2956C253.445 33.2956 255.723 31.1077 255.723 27.6867Z"
          fill="currentColor"/>
    <path d="M93.2483 54.1799V49.1677L90.7702 53.265H89.8908L87.4527 49.287V54.1799H85.6141V45.8262H87.2129L90.3705 50.9975L93.4481 45.8262H95.0469V54.1799H93.2483Z"
          fill="#B2CAD8"/>
    <path d="M96.3259 50.0031C96.3259 47.5367 98.2444 45.7069 100.922 45.7069C103.56 45.7069 105.519 47.5367 105.519 50.0031C105.519 52.5092 103.56 54.2993 100.922 54.2993C98.2844 54.2993 96.3259 52.4694 96.3259 50.0031ZM103.52 50.0031C103.52 48.4119 102.401 47.3378 100.882 47.3378C99.4035 47.3378 98.2444 48.4119 98.2444 50.0031C98.2444 51.5943 99.3636 52.6683 100.882 52.6683C102.401 52.6683 103.52 51.5943 103.52 50.0031Z"
          fill="#B2CAD8"/>
    <path d="M114.552 45.8262L110.915 54.1799H108.996L105.399 45.8262H107.477L110.035 51.7931L112.593 45.8262H114.552Z"
          fill="#B2CAD8"/>
    <path d="M116.95 45.8262H115.032V54.1799H116.95V45.8262Z" fill="#B2CAD8"/>
    <path d="M126.463 45.8262V54.1799H124.864L120.667 49.0881V54.1799H118.789V45.8262H120.387L124.544 50.8782V45.8262H126.463Z"
          fill="#B2CAD8"/>
    <path d="M133.897 49.844H135.656V53.2252C134.736 53.9015 133.457 54.2993 132.258 54.2993C129.62 54.2993 127.702 52.5092 127.702 50.0031C127.702 47.4969 129.62 45.7069 132.298 45.7069C133.777 45.7069 134.976 46.224 135.815 47.1389L134.576 48.2925C133.977 47.6561 133.257 47.3378 132.418 47.3378C130.779 47.3378 129.66 48.4119 129.66 50.0031C129.66 51.5545 130.779 52.6683 132.378 52.6683C132.898 52.6683 133.377 52.5887 133.897 52.3103V49.844Z"
          fill="#B2CAD8"/>
    <path d="M139.932 50.0031C139.932 47.4969 141.851 45.7069 144.489 45.7069C145.928 45.7069 147.127 46.224 147.926 47.1787L146.687 48.3323C146.128 47.6958 145.408 47.3378 144.569 47.3378C143.01 47.3378 141.891 48.4517 141.891 50.0031C141.891 51.5943 143.01 52.6683 144.569 52.6683C145.408 52.6683 146.128 52.3501 146.687 51.6738L147.926 52.8274C147.127 53.7821 145.928 54.2993 144.449 54.2993C141.891 54.2993 139.932 52.5092 139.932 50.0031Z"
          fill="#B2CAD8"/>
    <path d="M154.401 54.1799L152.802 51.8727H152.683H151.004V54.1799H149.085V45.8262H152.723C154.961 45.8262 156.36 46.9798 156.36 48.8494C156.36 50.0826 155.72 50.9975 154.641 51.4749L156.52 54.1401H154.401V54.1799ZM152.563 47.4174H150.964V50.3213H152.563C153.762 50.3213 154.361 49.7644 154.361 48.8494C154.361 47.9345 153.762 47.4174 152.563 47.4174Z"
          fill="#B2CAD8"/>
    <path d="M161.556 51.1964V54.1799H159.597V51.1964L156.36 45.8262H158.438L160.676 49.5257L162.915 45.8262H164.793L161.556 51.1964Z"
          fill="#B2CAD8"/>
    <path d="M172.587 48.8494C172.587 50.7191 171.188 51.8727 168.95 51.8727H167.271V54.1799H165.353V45.8262H168.99C171.188 45.8262 172.587 46.9798 172.587 48.8494ZM170.629 48.8494C170.629 47.9345 170.029 47.3776 168.83 47.3776H167.231V50.2815H168.83C170.029 50.2815 170.629 49.7644 170.629 48.8494Z"
          fill="#B2CAD8"/>
    <path d="M175.305 47.4174H172.627V45.8262H179.902V47.4174H177.224V54.1799H175.305V47.4174Z" fill="#B2CAD8"/>
    <path d="M180.101 50.0031C180.101 47.5367 182.02 45.7069 184.698 45.7069C187.336 45.7069 189.294 47.5367 189.294 50.0031C189.294 52.5092 187.336 54.2993 184.698 54.2993C182.06 54.2993 180.101 52.4694 180.101 50.0031ZM187.336 50.0031C187.336 48.4119 186.217 47.3378 184.698 47.3378C183.219 47.3378 182.06 48.4119 182.06 50.0031C182.06 51.5943 183.179 52.6683 184.698 52.6683C186.177 52.6683 187.336 51.5943 187.336 50.0031Z"
          fill="#B2CAD8"/>
    <path d="M195.689 47.3776V49.5655H199.566V51.1169H195.689V54.1799H193.731V45.8262H200.086V47.3776H195.689Z"
          fill="#B2CAD8"/>
    <path d="M200.566 50.0031C200.566 47.5367 202.484 45.7069 205.162 45.7069C207.8 45.7069 209.759 47.5367 209.759 50.0031C209.759 52.5092 207.8 54.2993 205.162 54.2993C202.524 54.2993 200.566 52.4694 200.566 50.0031ZM207.8 50.0031C207.8 48.4119 206.681 47.3378 205.162 47.3378C203.683 47.3378 202.524 48.4119 202.524 50.0031C202.524 51.5943 203.643 52.6683 205.162 52.6683C206.681 52.6683 207.8 51.5943 207.8 50.0031Z"
          fill="#B2CAD8"/>
    <path d="M216.354 54.1799L214.755 51.8727H214.635H212.956V54.1799H211.038V45.8262H214.675C216.913 45.8262 218.312 46.9798 218.312 48.8494C218.312 50.0826 217.673 50.9975 216.593 51.4749L218.472 54.1401H216.354V54.1799ZM214.515 47.4174H212.916V50.3213H214.515C215.714 50.3213 216.314 49.7644 216.314 48.8494C216.314 47.9345 215.714 47.4174 214.515 47.4174Z"
          fill="#B2CAD8"/>
    <path d="M232.261 45.8262L229.543 54.1799H227.465L225.626 48.5312L223.708 54.1799H221.63L218.872 45.8262H220.91L222.789 51.6738L224.747 45.8262H226.546L228.464 51.7136L230.423 45.8262H232.261Z"
          fill="#B2CAD8"/>
    <path d="M238.417 52.3898H234.54L233.78 54.1799H231.782L235.499 45.8262H237.417L241.174 54.1799H239.136L238.417 52.3898ZM237.777 50.918L236.458 47.7356L235.139 50.918H237.777Z"
          fill="#B2CAD8"/>
    <path d="M247.21 54.1799L245.611 51.8727H245.531H243.812V54.1799H241.894V45.8262H245.531C247.769 45.8262 249.168 46.9798 249.168 48.8494C249.168 50.0826 248.529 50.9975 247.45 51.4749L249.328 54.1401H247.21V54.1799ZM245.371 47.4174H243.772V50.3213H245.371C246.57 50.3213 247.17 49.7644 247.17 48.8494C247.17 47.9345 246.57 47.4174 245.371 47.4174Z"
          fill="#B2CAD8"/>
    <path d="M250.447 45.8262H254.244C257.002 45.8262 258.881 47.4572 258.881 50.0031C258.881 52.5092 257.002 54.1799 254.244 54.1799H250.447V45.8262ZM254.164 52.5887C255.843 52.5887 256.922 51.5942 256.922 50.0031C256.922 48.4119 255.843 47.4174 254.164 47.4174H252.406V52.5887H254.164Z"
          fill="#B2CAD8"/>
</svg>
