
<svg width="22" height="22" viewBox="0 0 22 22" fill="none" xmlns="http://www.w3.org/2000/svg">
<path d="M21.4437 20.5188L12.1937 11.2688L21.4437 2.01876C21.752 1.71043 21.752 1.24793 21.4437 0.939594C21.1353 0.63126 20.6728 0.63126 20.3645 0.939594L11.1145 10.1896L2.17284 1.09376C1.8645 0.785427 1.24784 0.785427 0.939502 1.09376C0.631169 1.40209 0.785335 1.86459 0.939502 2.17293L10.0353 11.2688L0.939502 20.3646C0.631169 20.6729 0.631169 21.1354 0.939502 21.4438C1.09367 21.5979 1.24784 21.5979 1.55617 21.5979C1.8645 21.5979 2.01867 21.5979 2.17284 21.4438L11.2687 12.3479L20.5187 21.5979C20.6728 21.7521 20.827 21.7521 21.1353 21.7521C21.4437 21.7521 21.5978 21.7521 21.752 21.5979C21.752 21.2896 21.752 20.8271 21.4437 20.5188Z" fill="#32407B" fill-opacity="0.7"/>
</svg>
