<svg width="30" height="30" viewBox="0 0 30 30" fill="none" xmlns="http://www.w3.org/2000/svg">
<path fill-rule="evenodd" clip-rule="evenodd" d="M15 30C23.2843 30 30 23.2843 30 15C30 6.71573 23.2843 0 15 0C6.71573 0 0 6.71573 0 15C0 23.2843 6.71573 30 15 30ZM24.5244 10.2259C24.2952 9.37287 23.6205 8.69812 22.7675 8.46896C21.227 8.04883 15.0269 8.04883 15.0269 8.04883C15.0269 8.04883 8.82684 8.06156 7.28637 8.48169C6.43338 8.71085 5.75863 9.3856 5.52947 10.2386C5.12207 11.7791 5.12207 15 5.12207 15C5.12207 15 5.12207 18.221 5.5422 19.7742C5.77136 20.6272 6.44611 21.302 7.2991 21.5311C8.83957 21.9513 15.0397 21.9513 15.0397 21.9513C15.0397 21.9513 21.2397 21.9513 22.7802 21.5311C23.6332 21.302 24.3079 20.6272 24.5371 19.7742C24.9572 18.2338 24.9572 15 24.9572 15C24.9572 15 24.9445 11.7791 24.5244 10.2259ZM13.0537 17.9797L18.1971 15.0006L13.0537 12.0215V17.9797Z" fill="#293566"/>
</svg>
