<svg width="30" height="30" viewBox="0 0 30 30" fill="none" xmlns="http://www.w3.org/2000/svg">
<path fill-rule="evenodd" clip-rule="evenodd" d="M15 30C23.2843 30 30 23.2843 30 15C30 6.71573 23.2843 0 15 0C6.71573 0 0 6.71573 0 15C0 23.2843 6.71573 30 15 30ZM10.0614 21.9411C11.3637 22.647 12.9109 23 14.7031 23C16.4824 23 17.9522 22.692 19.1126 22.0759C20.273 21.4726 21.0853 20.7282 21.5495 19.8426H18.397C18.1005 20.1763 17.6363 20.4458 17.0046 20.6512C16.3857 20.8566 15.6185 20.9592 14.7031 20.9592C13.4008 20.9592 12.2856 20.6961 11.3572 20.1699C10.4289 19.6565 9.71331 18.9377 9.21047 18.0136C8.72052 17.0895 8.47554 16.0049 8.47554 14.7599C8.47554 13.6561 8.63026 12.6871 8.9397 11.8528C9.24915 11.0185 9.68752 10.319 10.2548 9.75425C10.8221 9.18951 11.4862 8.75953 12.2469 8.46433C13.0076 8.16912 13.8457 8.02152 14.7611 8.02152C15.7281 8.02152 16.5791 8.13703 17.314 8.36806C18.0618 8.59909 18.6871 8.93922 19.19 9.38845C19.6928 9.83768 20.0732 10.3896 20.3311 11.0442C20.5889 11.6859 20.7179 12.4239 20.7179 13.2582C20.7179 13.9 20.6727 14.4455 20.5825 14.8947C20.4922 15.3311 20.3762 15.684 20.2344 15.9536C20.0925 16.2103 19.9378 16.3964 19.7702 16.5119C19.6155 16.6274 19.4736 16.6852 19.3447 16.6852C18.8548 16.6852 18.5711 16.4926 18.4937 16.1076C18.4293 15.7225 18.4551 15.2027 18.5711 14.5481L19.3447 10.2741H16.8885L16.7144 11.2559H16.6371C16.4566 10.8581 16.1665 10.5693 15.7668 10.3896C15.38 10.2099 14.948 10.12 14.471 10.12C13.8779 10.12 13.3299 10.242 12.8271 10.4858C12.3242 10.7297 11.8923 11.0763 11.5313 11.5255C11.1703 11.9619 10.8866 12.4881 10.6803 13.1042C10.4869 13.7074 10.3902 14.362 10.3902 15.068C10.3902 16.0819 10.6481 16.929 11.1638 17.6093C11.6925 18.2767 12.479 18.6104 13.5233 18.6104C14.2454 18.6104 14.8127 18.4564 15.2253 18.1484C15.6378 17.8275 15.9989 17.4553 16.3083 17.0317H16.347C16.4759 17.4809 16.7531 17.8596 17.1786 18.1676C17.617 18.4628 18.1907 18.6104 18.8999 18.6104C19.5317 18.6104 20.099 18.4885 20.6018 18.2446C21.1047 17.9879 21.5366 17.6285 21.8976 17.1665C22.2586 16.6916 22.5294 16.1268 22.7099 15.4723C22.9033 14.8048 23 14.0668 23 13.2582C23 12.1929 22.8195 11.2174 22.4585 10.3318C22.0975 9.43337 21.5624 8.66327 20.8532 8.02152C20.1441 7.37977 19.2802 6.88562 18.2617 6.53907C17.2431 6.17969 16.0762 6 14.7611 6C13.4975 6 12.3307 6.19253 11.2605 6.57758C10.2033 6.94979 9.28138 7.51453 8.49488 8.2718C7.70838 9.01623 7.09594 9.93394 6.65757 11.0249C6.21919 12.1031 6 13.3481 6 14.7599C6 16.3643 6.34812 17.789 7.04437 19.034C7.75351 20.2661 8.7592 21.2352 10.0614 21.9411ZM15.2833 16.2424C14.9609 16.5376 14.5548 16.6852 14.0648 16.6852C13.678 16.6852 13.3815 16.5311 13.1752 16.2231C12.9818 15.9151 12.8851 15.5364 12.8851 15.0872C12.8851 14.6251 12.956 14.1631 13.0978 13.701C13.2526 13.2261 13.4782 12.8347 13.7747 12.5266C14.0842 12.2057 14.471 12.0453 14.9352 12.0453C15.3477 12.0453 15.6701 12.1801 15.9022 12.4496C16.1471 12.7063 16.2696 13.1042 16.2696 13.6433C16.2696 14.1438 16.1858 14.6316 16.0182 15.1065C15.8635 15.5685 15.6185 15.9472 15.2833 16.2424Z" fill="#293566"/>
</svg>
