<svg width="30" height="30" viewBox="0 0 30 30" fill="none" xmlns="http://www.w3.org/2000/svg">
<path fill-rule="evenodd" clip-rule="evenodd" d="M15 30C23.2843 30 30 23.2843 30 15C30 6.71573 23.2843 0 15 0C6.71573 0 0 6.71573 0 15C0 23.2843 6.71573 30 15 30ZM23.0665 11.5076C23.0665 16.8449 19.1457 22.9999 11.9756 23C9.77382 23 7.72522 22.3314 6 21.1856C6.30514 21.223 6.61561 21.2415 6.92987 21.2415C8.75655 21.2415 10.4373 20.5962 11.7715 19.5126C10.0653 19.4799 8.62621 18.312 8.12992 16.7071C8.36742 16.7544 8.61177 16.7799 8.86257 16.7799C9.21825 16.7799 9.56292 16.7303 9.89048 16.6378C8.10674 16.2677 6.76305 14.6344 6.76305 12.6783V12.6781C6.76305 12.6601 6.76305 12.6436 6.76362 12.6267C7.28879 12.9295 7.88957 13.1114 8.52912 13.1319C7.48259 12.4081 6.7944 11.171 6.7944 9.76963C6.7944 9.02978 6.98744 8.33638 7.32223 7.73946C9.24467 10.1835 12.1175 11.7907 15.3574 11.9597C15.2905 11.664 15.2563 11.3557 15.2563 11.0387C15.2563 8.80888 17.0021 7 19.1548 7C20.2762 7 21.2889 7.491 22.0003 8.27614C22.8883 8.09462 23.7224 7.75836 24.4756 7.2957C24.1841 8.23873 23.5662 9.02978 22.7614 9.52984C23.5499 9.43219 24.3016 9.21562 25 8.89393C24.4783 9.70387 23.8167 10.4154 23.0555 10.9855C23.0631 11.1588 23.0665 11.3328 23.0665 11.5076Z" fill="#293566"/>
</svg>
