<svg width="30" height="30" viewBox="0 0 30 30" fill="none" xmlns="http://www.w3.org/2000/svg">
<path fill-rule="evenodd" clip-rule="evenodd" d="M15 30C23.2843 30 30 23.2843 30 15C30 6.71573 23.2843 0 15 0C6.71573 0 0 6.71573 0 15C0 23.2843 6.71573 30 15 30ZM9.059 6C7.92233 6 7 6.92233 7 8.059C7 9.19566 7.92233 10.1373 9.059 10.1373C10.1957 10.1373 11.118 9.19566 11.118 8.059C11.1173 6.92233 10.195 6 9.059 6ZM24.1422 23.1467V23.1474H20.5951V17.5741C20.5951 16.246 20.5679 14.5428 18.7468 14.5428C16.8986 14.5428 16.6157 15.9859 16.6157 17.4784V23.1467H13.0649V11.6993H16.4749V13.2604H16.5249C16.9986 12.3609 18.1589 11.4121 19.8878 11.4121C23.4843 11.4121 24.1465 13.7819 24.1465 16.8582V23.1467H24.1422ZM10.8377 11.6992H7.28271V23.1466H10.8377V11.6992Z" fill="#293566"/>
</svg>
