<svg width="118" height="28" viewBox="0 0 118 28" fill="none" xmlns="http://www.w3.org/2000/svg">
<g clip-path="url(#clip0)">
<path d="M7.12671 12.085L11.7174 7.42436L16.3105 12.0875L18.9817 9.37547L11.7174 2L4.45552 9.37301L7.12671 12.085Z" fill="#F3BA2F"/>
<path d="M5.24034 13.9995L2.5692 11.2876L-0.102071 13.9997L2.56907 16.7116L5.24034 13.9995Z" fill="#F3BA2F"/>
<path d="M7.1267 15.9149L11.7174 20.5755L16.3103 15.9126L18.983 18.6231L18.9817 18.6246L11.7174 25.9999L4.45533 18.6271L4.4516 18.6233L7.1267 15.9149Z" fill="#F3BA2F"/>
<path d="M20.8659 16.7128L23.5371 14.0007L20.866 11.2888L18.1947 14.0009L20.8659 16.7128Z" fill="#F3BA2F"/>
<path d="M14.4269 13.9986H14.428L11.7174 11.2466L9.71424 13.2803H9.71405L9.48403 13.5141L9.00924 13.9961L9.00551 13.9999L9.00924 14.0039L11.7174 16.7534L14.428 14.0014L14.4293 13.9999L14.4269 13.9986Z" fill="#F3BA2F"/>
<path d="M27.7014 7.81543H33.5111C34.953 7.81543 36.0433 8.19113 36.7823 8.94254C37.3542 9.52448 37.64 10.2457 37.64 11.1061V11.1425C37.64 11.5061 37.5958 11.8274 37.5067 12.1061C37.4179 12.3851 37.2991 12.6362 37.1507 12.8605C37.0026 13.0849 36.8305 13.2819 36.6348 13.4513C36.439 13.6212 36.2286 13.7668 36.0032 13.8877C36.728 14.1667 37.2986 14.5453 37.7145 15.0241C38.1303 15.5031 38.3385 16.1667 38.3385 17.015V17.0512C38.3385 17.6332 38.2284 18.1421 38.0079 18.5787C37.7874 19.0148 37.4715 19.3786 37.0601 19.6696C36.6488 19.9605 36.1543 20.1785 35.5762 20.3241C34.9982 20.4695 34.3576 20.5421 33.6546 20.5421H27.7014V7.81543ZM32.9302 12.9606C33.5393 12.9606 34.0228 12.8548 34.3807 12.6425C34.7388 12.4304 34.9179 12.0879 34.9179 11.6153V11.5789C34.9179 11.1549 34.7626 10.8307 34.4522 10.6063C34.1418 10.382 33.694 10.2698 33.1093 10.2698H30.3873V12.9606H32.9302ZM33.6645 18.0879C34.2734 18.0879 34.7506 17.9761 35.0971 17.7516C35.4433 17.5274 35.6165 17.1788 35.6165 16.706V16.6698C35.6165 16.2456 35.4552 15.9093 35.133 15.6606C34.8105 15.4125 34.2913 15.2881 33.5749 15.2881H30.3873V18.0881H33.6645V18.0879Z" fill="#F3BA2F"/>
<path d="M41.7985 7.81543H44.5565V20.5425H41.7985V7.81543Z" fill="#F3BA2F"/>
<path d="M48.7337 7.81543H51.2762L57.1501 15.6517V7.81543H59.8721V20.5425H57.5263L51.4555 12.4518V20.5425H48.7337V7.81543Z" fill="#F3BA2F"/>
<path d="M68.2215 7.72461H70.7643L76.1369 20.5425H73.2536L72.1074 17.6881H66.8067L65.6607 20.5425H62.8487L68.2215 7.72461ZM71.1226 15.2151L69.457 11.0881L67.7919 15.2151H71.1226Z" fill="#F3BA2F"/>
<path d="M79.1139 7.81543H81.657L87.5305 15.6517V7.81543H90.2525V20.5425H87.9068L81.8359 12.4518V20.5425H79.1139V7.81543Z" fill="#F3BA2F"/>
<path d="M100.178 20.7604C99.258 20.7604 98.4048 20.5905 97.6167 20.2514C96.8286 19.9123 96.1483 19.4485 95.5753 18.8605C95.0021 18.2726 94.5542 17.5787 94.2323 16.7787C93.9099 15.9786 93.7487 15.1241 93.7487 14.215V14.1788C93.7487 13.2697 93.9099 12.4184 94.2323 11.6243C94.5544 10.8304 95.0021 10.1334 95.5753 9.53349C96.1481 8.93354 96.8348 8.4606 97.6344 8.11523C98.4341 7.76985 99.3182 7.59717 100.285 7.59717C100.87 7.59717 101.404 7.64588 101.887 7.74256C102.371 7.8398 102.81 7.97287 103.204 8.14252C103.598 8.31237 103.962 8.51841 104.296 8.76067C104.63 9.0033 104.941 9.26982 105.227 9.56079L103.473 11.6152C102.983 11.1669 102.484 10.8151 101.977 10.5607C101.47 10.3063 100.9 10.1789 100.267 10.1789C99.7416 10.1789 99.255 10.2821 98.8077 10.4881C98.36 10.6941 97.9748 10.9789 97.6524 11.3424C97.3303 11.706 97.0796 12.1274 96.9001 12.606C96.7215 13.085 96.632 13.597 96.632 14.1424V14.1786C96.632 14.7239 96.7215 15.2393 96.9001 15.7239C97.0796 16.2089 97.3268 16.633 97.6436 16.9965C97.9597 17.3601 98.3419 17.6482 98.7894 17.8604C99.2375 18.0727 99.7298 18.1784 100.267 18.1784C100.984 18.1784 101.589 18.0452 102.084 17.7785C102.58 17.5121 103.073 17.1484 103.562 16.6876L105.317 18.4876C104.995 18.8392 104.66 19.1545 104.314 19.4329C103.968 19.7119 103.589 19.9512 103.177 20.1513C102.765 20.3511 102.314 20.503 101.825 20.6057C101.335 20.7086 100.786 20.7604 100.178 20.7604Z" fill="#F3BA2F"/>
<path d="M108.563 7.81543H118V10.3064H111.285V12.8882H117.194V15.3789H111.285V18.0517H118.09V20.5425H108.563V7.81543Z" fill="#F3BA2F"/>
</g>
<defs>
<clipPath id="clip0">
<rect width="118" height="28" fill="white"/>
</clipPath>
</defs>
</svg>
