<svg width="118" height="28" viewBox="0 0 118 28" fill="none" xmlns="http://www.w3.org/2000/svg">
<path fill-rule="evenodd" clip-rule="evenodd" d="M11.7275 23.255C12.5966 23.255 13.4095 23.0971 14.1757 22.7907C14.1757 22.8186 15.7362 25.2236 15.7643 25.2329C14.3831 25.9681 12.8364 26.342 11.2697 26.3193C6.47607 26.3286 3 23.1807 3 18.1757C3 13.1336 6.64426 10.0043 11.2697 10.0043C12.9049 10.0043 14.2038 10.3571 15.5026 11.0443L14.0075 13.5514C13.2226 13.245 12.419 13.1057 11.578 13.1057C8.74672 13.1057 6.55082 14.8979 6.55082 18.1757C6.55082 21.2771 8.67197 23.255 11.7275 23.255ZM23.8097 10.0043C28.5192 10.0043 31.9298 13.3193 31.9298 18.1757C31.9298 23.0043 28.5192 26.3193 23.8003 26.3193C19.1282 26.3193 15.7175 23.0043 15.7175 18.1757C15.7175 13.3193 19.1282 10.0043 23.8097 10.0043ZM23.8097 12.9943C21.1839 12.9943 19.2684 15.0093 19.2684 18.1757C19.2684 21.3143 21.1839 23.3293 23.8097 23.3293C26.5008 23.3293 28.3884 21.3143 28.3884 18.1757C28.3884 15.0093 26.5008 12.9943 23.8097 12.9943ZM34.1631 25.9664V10.3571H37.6766V25.9571H34.1631V25.9664ZM33.6959 5.55643C33.7323 5.00109 33.98 4.48032 34.3887 4.09982C34.7974 3.71931 35.3364 3.50757 35.8965 3.50757C36.4565 3.50757 36.9956 3.71931 37.4042 4.09982C37.8129 4.48032 38.0606 5.00109 38.097 5.55643C38.0972 6.13953 37.8673 6.69945 37.4568 7.11608C37.0463 7.5327 36.4878 7.77285 35.9011 7.785C35.3145 7.77285 34.756 7.5327 34.3455 7.11608C33.935 6.69945 33.7051 6.13953 33.7052 5.55643H33.6959ZM40.7415 11.3414C43.0429 10.4818 45.478 10.0293 47.9366 10.0043C51.9546 10.0043 54.4962 11.5179 54.4962 15.9193V25.9664H51.0295V16.2443C51.0295 13.9879 49.6185 13.18 47.6656 13.18C46.4228 13.18 45.18 13.3471 44.2549 13.635V25.9571H40.7508V11.3414H40.7415ZM57.4397 2H60.9531V10.775C61.7007 10.385 63.149 10.0043 64.532 10.0043C69.0733 10.0043 72.4746 12.8829 72.4746 17.8971C72.4746 22.9393 69.1107 26.3193 63.2985 26.3193C61.0279 26.3193 59.0375 25.855 57.4397 25.2979V2ZM60.9531 23.0043C61.6259 23.2179 62.5136 23.3293 63.4013 23.3293C66.6251 23.3293 68.9331 21.565 68.9331 17.9714C68.9331 14.935 66.7652 13.1429 64.1115 13.1429C62.7285 13.1429 61.6633 13.4957 60.9531 13.8857V23.0043ZM82.6318 15.5014C82.6318 13.8114 81.3423 13.0314 79.6043 13.0314C77.8008 13.0314 76.3805 13.5607 75.0723 14.3036V11.2671C76.6373 10.422 78.3932 9.98735 80.1743 10.0043C83.613 10.0043 86.0611 11.4157 86.0611 15.325V25.6507C84.5661 26.0407 82.4449 26.2821 80.6695 26.2821C76.5954 26.2821 73.6146 25.0564 73.6146 21.5279C73.6146 18.3521 76.3431 16.8014 80.8844 16.8014H82.6225V15.5014H82.6318ZM82.6318 19.1229H81.1367C78.6885 19.1229 77.0907 19.8379 77.0907 21.4257C77.0907 23.0414 78.5857 23.6729 80.7069 23.6729C81.2395 23.6729 81.9871 23.6079 82.6225 23.5057V19.1321L82.6318 19.1229ZM88.6121 21.7414C89.9815 22.8195 91.6601 23.4374 93.4057 23.5057C94.9662 23.5057 95.9941 22.9764 95.9941 21.7414C95.9941 20.4693 95.069 20.0143 93.0507 19.485C89.7802 18.7421 88.4066 17.4421 88.4066 14.7214C88.4066 11.555 90.8174 10.0043 94.0131 10.0043C95.7885 10.0043 97.1995 10.385 98.5171 11.2021V14.4057C97.2648 13.4125 95.7178 12.8577 94.1159 12.8271C92.5928 12.8271 91.7798 13.57 91.7798 14.5914C91.7798 15.6129 92.4433 16.1329 94.2561 16.6343C97.8443 17.405 99.3954 18.7421 99.3954 21.5557C99.3954 24.8429 96.8818 26.3193 93.4805 26.3193C91.7744 26.3531 90.0924 25.916 88.6215 25.0564V21.7414H88.6121ZM104.208 18.9557V19.0207C104.423 21.8064 106.824 23.3293 109.282 23.3293C111.44 23.3293 113.001 22.8279 114.561 21.8064V24.8707C113.141 25.8643 111.048 26.3193 109.029 26.3193C104.133 26.3193 100.806 23.2179 100.806 18.2871C100.806 13.3193 104.068 10.0043 108.394 10.0043C112.973 10.0043 115.131 12.9293 115.131 17.1914V18.9557H104.198H104.208ZM111.833 16.6993C111.758 14.2664 110.552 12.9293 108.282 12.9293C106.263 12.9293 104.778 14.3407 104.31 16.6993H111.833Z" fill="#0667D0"/>
</svg>
