<svg width="118" height="28" viewBox="0 0 118 28" fill="none" xmlns="http://www.w3.org/2000/svg">
<path d="M19.3286 6.91518C21.0075 6.79889 22.7187 7.14776 24.22 7.92856C26.4478 9.05823 28.2236 11.085 29.0469 13.4773C29.4182 14.5405 29.6119 15.6535 29.6119 16.7832V20.953C29.6119 21.1192 29.6119 21.3019 29.5796 21.468C29.4828 21.8834 29.1922 22.2654 28.8047 22.4482C28.5303 22.5811 28.2236 22.5977 27.9491 22.5479C27.3357 22.4316 26.8514 21.8335 26.8514 21.1856C26.8514 19.8898 26.8514 18.594 26.8514 17.2982C26.8675 16.9327 26.8675 16.534 26.6738 16.2184C26.3671 15.6203 25.5922 15.3379 24.9949 15.5871C24.4783 15.7698 24.107 16.3181 24.0909 16.8829C24.0909 18.1953 24.0909 19.5077 24.0909 20.8201C24.0909 21.0693 24.107 21.3185 24.0263 21.5511C23.8972 22.0163 23.5259 22.3817 23.0739 22.5146C22.4766 22.6808 21.7986 22.415 21.508 21.8501C21.2981 21.5179 21.3143 21.1025 21.3304 20.7205C21.3304 19.408 21.3304 18.1122 21.3304 16.7998C21.3143 16.1353 20.7815 15.5372 20.1519 15.4542C19.7322 15.3877 19.2963 15.5372 18.9896 15.8363C18.7152 16.1021 18.5699 16.4842 18.5699 16.8663V20.6706C18.5699 20.9863 18.6022 21.3185 18.4892 21.6175C18.3116 22.1658 17.7789 22.5645 17.2139 22.5479C16.6327 22.5811 16.0677 22.1658 15.8901 21.6175C15.7933 21.3351 15.8094 21.0527 15.8094 20.7537C15.8094 19.4413 15.8094 18.1288 15.8094 16.8164C15.8094 16.1685 15.309 15.5705 14.6955 15.4542C14.1305 15.3379 13.517 15.6203 13.2265 16.1519C13.1135 16.3679 13.0489 16.6171 13.0489 16.8663V21.1358C13.0489 21.5511 12.8713 21.9664 12.5646 22.2322C12.0964 22.6475 11.3377 22.6808 10.8534 22.2987C10.4983 22.0495 10.2884 21.6175 10.2884 21.169V16.8497C10.2884 15.2216 10.692 13.5935 11.4507 12.1482C12.0642 10.9687 12.9197 9.9221 13.9368 9.09146C15.4381 7.79566 17.3592 7.03147 19.3286 6.91518Z" fill="#5741D9"/>
<path d="M57.0555 11.9158H54.9569C55.0376 10.404 55.3443 9.04178 56.6842 8.17792C58.0241 7.33066 59.4931 7.13131 61.0267 7.26421C61.8501 7.33066 62.6734 7.51341 63.4321 7.87889C64.772 8.51018 65.4339 9.59001 65.4339 11.1018C65.4339 13.7764 65.4339 16.4511 65.4339 19.1258C65.4339 20.1059 65.6276 20.2887 66.58 20.189C66.6769 20.1724 66.7899 20.1558 66.8868 20.1392C66.9029 20.189 66.9029 20.2388 66.9029 20.2721V21.9001C66.1442 22.1659 65.3693 22.249 64.6106 22.033C64.0455 21.8669 63.6904 21.4516 63.4967 20.9033C63.3998 20.6209 63.3352 20.3219 63.2545 20.0063C63.1738 20.1059 63.1092 20.189 63.0285 20.2721C61.3658 21.9998 59.3963 22.7308 57.0716 22.1161C55.425 21.6841 54.295 20.1392 54.2466 18.3782C54.2304 17.8134 54.2789 17.2485 54.408 16.7003C54.7147 15.4377 55.5865 14.6735 56.6842 14.1585C57.4591 13.7931 58.2985 13.6934 59.138 13.5771C60.1227 13.4442 61.0913 13.3279 62.0761 13.1784C62.7379 13.0787 63.077 12.7132 63.1738 12.0321C63.3837 10.6532 62.7864 9.73953 61.4949 9.40727C60.72 9.20792 59.929 9.17469 59.138 9.32421C57.9757 9.54017 57.3299 10.2213 57.1039 11.4008C57.1201 11.5669 57.0878 11.7331 57.0555 11.9158ZM63.2384 14.5739C62.2698 15.1055 61.3335 15.2384 60.381 15.3879C59.59 15.5208 58.7828 15.6371 58.008 15.8863C56.9909 16.2351 56.5228 17.099 56.6196 18.2619C56.7003 19.2254 57.3299 20.0063 58.347 20.1724C59.9129 20.4382 61.3012 19.9896 62.3989 18.7935C62.7218 18.4446 62.9801 17.9463 63.0447 17.4811C63.1899 16.5508 63.1738 15.6038 63.2384 14.5739ZM93.1519 17.3648C93.1035 17.5974 93.0712 17.7967 93.0228 17.9795C92.1187 20.8203 90.2784 22.033 88.0506 22.2988C84.1924 22.7308 81.9807 20.1392 81.4157 17.3814C80.9637 15.1885 81.0283 13.0123 81.9646 10.9523C82.8525 9.00856 84.2731 7.72937 86.3879 7.34728C88.9224 6.88212 92.5062 8.17792 93.1035 12.2481C93.2649 13.2947 93.2972 14.3745 93.394 15.471H83.5789C83.6596 16.9661 83.8856 18.3616 84.9511 19.4414C85.387 19.89 85.952 20.1059 86.5654 20.2222C88.5511 20.5877 90.1977 19.6075 90.8434 17.6306C90.908 17.4147 91.0048 17.3482 91.2147 17.3648C91.8443 17.3648 92.4739 17.3648 93.1519 17.3648ZM83.6596 13.5439H91.0048C90.9241 12.6634 90.7788 11.8494 90.3752 11.0852C89.9878 10.3542 89.4228 9.82259 88.6479 9.55678C86.1134 8.65969 83.4982 10.7363 83.6596 13.5439ZM98.4308 21.817H96.203V7.56325H98.3177V9.55678C98.4792 9.37404 98.576 9.25775 98.6729 9.14146C100.19 7.36389 102.095 6.89873 104.258 7.44695C105.76 7.82905 106.599 8.9255 106.89 10.4539C107.003 11.0852 107.084 11.7331 107.084 12.3644C107.1 15.4211 107.1 18.4779 107.1 21.5346C107.1 21.6177 107.084 21.7008 107.084 21.8004H104.807V21.4183C104.807 18.5609 104.824 15.7035 104.791 12.8461C104.791 12.2148 104.694 11.5669 104.517 10.9523C104.226 9.95549 103.451 9.42388 102.434 9.37404C100.578 9.30759 99.1088 10.321 98.6568 12.0155C98.4953 12.6302 98.4469 13.2781 98.4469 13.926C98.4307 16.4345 98.4308 18.9264 98.4308 21.4017V21.817ZM69.0661 7.56325H71.2132V13.6103C71.3423 13.4774 71.423 13.411 71.5037 13.3279C73.2634 11.4839 75.023 9.62323 76.7826 7.77921C76.9279 7.61308 77.0732 7.54663 77.2992 7.54663C78.1225 7.56324 78.9619 7.54663 79.866 7.54663C79.7368 7.67953 79.6722 7.7626 79.5915 7.84566C78.0418 9.44049 76.5082 11.0519 74.9423 12.6302C74.7647 12.8129 74.7647 12.9292 74.8777 13.1285C76.5727 15.9029 78.2516 18.6772 79.9305 21.4516C79.9951 21.5512 80.0435 21.6509 80.1243 21.8004C80.0113 21.817 79.9305 21.817 79.8337 21.817C79.0588 21.817 78.3001 21.817 77.5252 21.817C77.3153 21.817 77.2185 21.734 77.1055 21.5679C75.814 19.3417 74.5225 17.1156 73.2311 14.8729C73.1665 14.7732 73.1181 14.6735 73.0374 14.5572C72.4401 15.1719 71.8589 15.7534 71.2777 16.368C71.197 16.4511 71.1809 16.6006 71.1809 16.7169C71.1809 18.2785 71.1809 19.8401 71.1809 21.4017V21.8004C70.7612 21.8004 70.3414 21.8004 69.9378 21.8004C69.6473 21.8004 69.2437 21.8835 69.0823 21.7174C68.937 21.5845 69.0177 21.1525 69.0177 20.8535V7.94534C69.0661 7.86227 69.0661 7.72937 69.0661 7.56325ZM44.2862 7.54663C42.5427 9.3242 40.8476 11.0686 39.1365 12.8129C40.9768 15.8364 42.7687 18.7935 44.5929 21.817C44.4476 21.817 44.3507 21.8337 44.2539 21.8337C43.5113 21.8337 42.7525 21.8337 42.01 21.8337C41.8001 21.8337 41.6709 21.7506 41.5579 21.5679C40.2665 19.3417 38.975 17.1156 37.6836 14.8729C37.6351 14.7732 37.5706 14.6901 37.4898 14.5572C37.167 14.9061 36.8764 15.2882 36.5212 15.554C35.7948 16.1189 35.5849 16.8166 35.6334 17.7469C35.7141 18.9596 35.6495 20.189 35.6495 21.4017V21.8004H33.5186V7.56325H35.6495V13.5106C35.6979 13.5439 35.7464 13.5771 35.7786 13.6103C35.8432 13.5106 35.8755 13.3943 35.9401 13.3113C37.6836 11.4673 39.4432 9.63985 41.1866 7.77921C41.3481 7.61308 41.4934 7.53002 41.7355 7.54663C42.462 7.56324 43.1884 7.54663 43.9149 7.54663C44.0279 7.54663 44.1247 7.54663 44.2862 7.54663ZM48.548 9.92226C49.6296 8.29421 50.7758 6.93196 52.9067 7.33067V9.77275C52.3417 9.80597 51.7766 9.78937 51.2439 9.90565C49.9363 10.1881 48.9193 11.4174 48.7094 12.9126C48.6771 13.2116 48.6448 13.5106 48.6448 13.8097C48.6448 16.3514 48.6448 18.8932 48.6448 21.435V21.8337H46.4494V7.59647H48.548C48.548 8.34405 48.548 9.09162 48.548 9.92226Z" fill="#5741D9"/>
</svg>
