<svg width="118" height="28" viewBox="0 0 118 28" fill="none" xmlns="http://www.w3.org/2000/svg">
<path d="M15.5691 0C23.6115 0 30.1382 6.27173 30.1382 14C30.1382 21.7283 23.6115 28 15.5691 28C7.52667 28 1 21.7454 1 14C1 6.25459 7.52667 0 15.5691 0Z" fill="#32407B"/>
<path d="M15.5692 2.15918C22.3812 2.15918 27.9092 7.4713 27.9092 14.0172C27.9092 20.5631 22.3812 25.8752 15.5692 25.8752C8.7572 25.8752 3.22914 20.5631 3.22914 14.0172C3.24697 7.45416 8.7572 2.15918 15.5692 2.15918Z" fill="#32407B"/>
<path d="M15.5692 26.1151C8.61451 26.1151 2.96162 20.6831 2.96162 14.0001C2.96162 7.31708 8.63234 1.88501 15.5692 1.88501C22.5238 1.88501 28.1767 7.31708 28.1767 14.0001C28.1767 20.6831 22.5238 26.1151 15.5692 26.1151ZM15.5692 2.41622C8.91766 2.41622 3.51443 7.60839 3.51443 14.0001C3.51443 20.3917 8.91766 25.5839 15.5692 25.5839C22.2207 25.5839 27.6239 20.3917 27.6239 14.0001C27.6417 7.60839 22.2207 2.41622 15.5692 2.41622Z" fill="white"/>
<path d="M20.9189 18.8323H10.2194C10.0768 18.8323 9.95195 18.7124 9.95195 18.5753V9.54467C9.95195 8.03672 11.2181 6.82007 12.7873 6.82007H18.351C19.9203 6.82007 21.1864 8.03672 21.1864 9.54467V18.5753C21.1864 18.7124 21.0616 18.8323 20.9189 18.8323ZM10.5048 18.3011H20.6514V9.54467C20.6514 8.32802 19.6171 7.35128 18.3689 7.35128H12.7873C11.5212 7.35128 10.5048 8.34516 10.5048 9.54467V18.3011Z" fill="white"/>
<path d="M12.7159 17.2216C12.0918 17.2216 11.5925 16.7418 11.5925 16.1421C11.5925 15.5423 12.0918 15.0625 12.7159 15.0625C13.34 15.0625 13.8393 15.5423 13.8393 16.1421C13.8393 16.7247 13.34 17.2216 12.7159 17.2216ZM12.7159 15.5766C12.3949 15.5766 12.1274 15.8336 12.1274 16.1421C12.1274 16.4505 12.3949 16.7075 12.7159 16.7075C13.0369 16.7075 13.3044 16.4505 13.3044 16.1421C13.2865 15.8165 13.0369 15.5766 12.7159 15.5766Z" fill="white"/>
<path d="M18.4402 17.2216C17.8161 17.2216 17.3168 16.7418 17.3168 16.1421C17.3168 15.5423 17.8161 15.0625 18.4402 15.0625C19.0643 15.0625 19.5636 15.5423 19.5636 16.1421C19.5636 16.7247 19.0643 17.2216 18.4402 17.2216ZM18.4402 15.5766C18.1192 15.5766 17.8517 15.8336 17.8517 16.1421C17.8517 16.4505 18.1192 16.7075 18.4402 16.7075C18.7612 16.7075 19.0287 16.4505 19.0287 16.1421C19.0108 15.8165 18.7612 15.5766 18.4402 15.5766Z" fill="white"/>
<path d="M17.1919 8.73917H13.9464C13.8037 8.73917 13.6789 8.61922 13.6789 8.48213C13.6789 8.34505 13.8037 8.2251 13.9464 8.2251H17.1919C17.3346 8.2251 17.4594 8.34505 17.4594 8.48213C17.4772 8.63636 17.3524 8.73917 17.1919 8.73917Z" fill="white"/>
<path d="M20.7583 21.3342C20.6691 21.3342 20.5799 21.2999 20.5443 21.2314L18.8145 18.8838C18.7254 18.7638 18.761 18.6096 18.8858 18.5239C19.0107 18.4382 19.1712 18.4725 19.2603 18.5925L20.9901 20.9401C21.0792 21.06 21.0436 21.2142 20.9187 21.2999C20.8831 21.3171 20.8118 21.3342 20.7583 21.3342Z" fill="white"/>
<path d="M10.38 21.3342C10.3265 21.3342 10.273 21.3171 10.2195 21.2828C10.0946 21.1972 10.0768 21.0429 10.1481 20.923L11.8779 18.5754C11.967 18.4554 12.1275 18.4211 12.2524 18.5068C12.3772 18.5925 12.4129 18.7467 12.3237 18.8667L10.5939 21.2143C10.5583 21.2828 10.4691 21.3342 10.38 21.3342Z" fill="white"/>
<path d="M10.8078 20.7516C10.7543 20.7516 10.7008 20.7345 10.6473 20.7002C10.5225 20.6145 10.5046 20.4603 10.576 20.3404L11.8777 18.5754C11.9669 18.4554 12.1274 18.4211 12.2522 18.5068C12.377 18.5925 12.4127 18.7467 12.3235 18.8667L11.0218 20.6317C10.9861 20.7002 10.8969 20.7516 10.8078 20.7516Z" fill="white"/>
<path d="M20.9189 10.7443H10.2194C10.0768 10.7443 9.95195 10.6243 9.95195 10.4873C9.95195 10.3502 10.0768 10.2302 10.2194 10.2302H20.9189C21.0616 10.2302 21.1864 10.3502 21.1864 10.4873C21.1864 10.6243 21.0616 10.7272 20.9189 10.7443Z" fill="white"/>
<path d="M20.9189 14.0343H10.2194C10.0768 14.0343 9.95195 13.9144 9.95195 13.7773C9.95195 13.6402 10.0768 13.5203 10.2194 13.5203H20.9189C21.0616 13.5203 21.1864 13.6402 21.1864 13.7773C21.1864 13.9144 21.0616 14.0343 20.9189 14.0343Z" fill="white"/>
<path d="M12.7159 14.0344C12.6445 14.0344 12.591 14.0172 12.5375 13.9658C12.4127 13.8801 12.4127 13.7088 12.5019 13.606L13.7323 12.2522C13.8393 12.1494 13.9998 12.1323 14.1068 12.2351C14.2138 12.3379 14.2316 12.4921 14.1246 12.5949L12.8942 13.9487C12.8585 14.0001 12.7872 14.0344 12.7159 14.0344Z" fill="white"/>
<path d="M14.3386 14.0343C14.2673 14.0343 14.2138 14.0172 14.1603 13.9658C14.0533 13.863 14.0355 13.7088 14.1425 13.6059L16.6212 10.8985C16.7282 10.7957 16.8886 10.7785 16.9956 10.8813C17.1026 10.9841 17.1205 11.1384 17.0135 11.2412L14.5348 13.9487C14.4813 14.0001 14.4099 14.0343 14.3386 14.0343Z" fill="white"/>
<path d="M19.4744 19.6549H11.6638C11.5211 19.6549 11.3963 19.535 11.3963 19.3979C11.3963 19.2608 11.5211 19.1409 11.6638 19.1409H19.4744C19.617 19.1409 19.7419 19.2608 19.7419 19.3979C19.7597 19.535 19.6349 19.6549 19.4744 19.6549Z" fill="white"/>
<path d="M20.3302 20.7516H10.8077C10.665 20.7516 10.5402 20.6317 10.5402 20.4946C10.5402 20.3575 10.665 20.2375 10.8077 20.2375H20.3302C20.4729 20.2375 20.5977 20.3575 20.5977 20.4946C20.6155 20.6317 20.4907 20.7516 20.3302 20.7516Z" fill="white"/>
<path d="M15.5691 24.5214C9.54175 24.5214 4.62 19.809 4.62 13.9999C4.62 8.20801 9.52391 3.47852 15.5691 3.47852C21.5965 3.47852 26.5182 8.19088 26.5182 13.9999C26.5182 19.809 21.6143 24.5214 15.5691 24.5214ZM15.5691 4.00973C9.82707 4.00973 5.1728 8.49932 5.1728 13.9999C5.1728 19.5177 9.8449 23.9901 15.5691 23.9901C21.3112 23.9901 25.9654 19.5005 25.9654 13.9999C25.9833 8.48219 21.3112 4.00973 15.5691 4.00973Z" fill="white"/>
<path d="M38.6799 10.7271C38.6799 7.69408 41.0873 5.51782 44.3328 5.51782C46.0447 5.51782 47.5248 6.11758 48.5056 7.21427L47.2395 8.36238C46.4727 7.57413 45.5276 7.18 44.422 7.18C42.2286 7.18 40.6593 8.65369 40.6593 10.7443C40.6593 12.8348 42.2464 14.3085 44.422 14.3085C45.5276 14.3085 46.4727 13.9144 47.2395 13.109L48.5056 14.2743C47.5248 15.3709 46.0447 15.9707 44.315 15.9707C41.0873 15.9364 38.6799 13.7602 38.6799 10.7271Z" fill="#165179"/>
<path d="M49.0405 11.9266C49.0405 9.6133 50.8416 7.96826 53.3203 7.96826C55.8169 7.96826 57.6179 9.6133 57.6179 11.9266C57.6179 14.24 55.8169 15.9022 53.3203 15.9022C50.8595 15.9022 49.0405 14.24 49.0405 11.9266ZM55.7277 11.9266C55.7277 10.453 54.7113 9.51049 53.3382 9.51049C51.9829 9.51049 50.9486 10.453 50.9486 11.9266C50.9486 13.4003 51.9651 14.3428 53.3382 14.3428C54.6934 14.3428 55.7277 13.4003 55.7277 11.9266Z" fill="#165179"/>
<path d="M58.9733 5.70627C58.9733 5.08938 59.4905 4.62671 60.1859 4.62671C60.8814 4.62671 61.3985 5.07224 61.3985 5.672C61.3985 6.30602 60.8992 6.80296 60.1859 6.80296C59.4905 6.78583 58.9733 6.30602 58.9733 5.70627ZM59.2408 8.05388H61.131V15.7822H59.2408V8.05388Z" fill="#165179"/>
<path d="M71.3311 11.3612V15.7994H69.4409V11.6011C69.4409 10.2302 68.7276 9.5619 67.5328 9.5619C66.1954 9.5619 65.2859 10.3501 65.2859 11.8924V15.7994H63.3957V8.05394H65.1967V9.04782C65.8209 8.34525 66.8017 7.96826 67.9786 7.96826C69.8867 7.96826 71.3311 9.03069 71.3311 11.3612Z" fill="#165179"/>
<path d="M83.4037 15.7992L83.3859 9.08196L79.9264 14.634H79.0526L75.5753 9.16764V15.7992H73.7029V5.65479H75.3256L79.5162 12.372L83.6355 5.65479H85.2405L85.2583 15.7992H83.4037Z" fill="#165179"/>
<path d="M95.2622 12.5093H88.9495C89.1814 13.6402 90.1621 14.3599 91.5531 14.3599C92.4625 14.3599 93.158 14.0858 93.7465 13.5203L94.7629 14.6341C94.0318 15.4566 92.9083 15.9022 91.5174 15.9022C88.8247 15.9022 87.0771 14.24 87.0771 11.9266C87.0771 9.63044 88.8425 7.96826 91.2321 7.96826C93.586 7.96826 95.2979 9.54476 95.2979 11.9609C95.2979 12.1151 95.2801 12.3379 95.2622 12.5093ZM88.9317 11.3098H93.4968C93.3542 10.1959 92.4625 9.42481 91.2143 9.42481C90.0017 9.42481 89.11 10.1788 88.9317 11.3098Z" fill="#165179"/>
<path d="M101.753 15.3709C101.307 15.7136 100.63 15.885 99.9521 15.885C98.1867 15.885 97.1702 14.9939 97.1702 13.2803V9.56183H95.8506V8.10528H97.1702V6.35742H99.0605V8.12242H101.218V9.57896H99.0605V13.2632C99.0605 14.0172 99.4528 14.4284 100.184 14.4284C100.576 14.4284 100.951 14.3256 101.236 14.1028L101.753 15.3709Z" fill="#165179"/>
<path d="M107.763 7.96826V9.69898C107.602 9.66471 107.46 9.64758 107.317 9.64758C105.89 9.64758 104.981 10.453 104.981 12.0295V15.7822H103.091V8.05394H104.892V9.18491C105.444 8.37952 106.425 7.96826 107.763 7.96826Z" fill="#165179"/>
<path d="M108.423 11.9266C108.423 9.6133 110.224 7.96826 112.702 7.96826C115.199 7.96826 117 9.6133 117 11.9266C117 14.24 115.199 15.9022 112.702 15.9022C110.224 15.9022 108.423 14.24 108.423 11.9266ZM115.092 11.9266C115.092 10.453 114.075 9.51049 112.702 9.51049C111.347 9.51049 110.313 10.453 110.313 11.9266C110.313 13.4003 111.329 14.3428 112.702 14.3428C114.075 14.3428 115.092 13.4003 115.092 11.9266Z" fill="#165179"/>
<path d="M42.603 23.339V21.1799L41.4974 22.9449H41.1051L40.0173 21.2313V23.339H39.197V19.7405H39.9103L41.3191 21.9681L42.6922 19.7405H43.4055V23.339H42.603Z" fill="#B2CAD8"/>
<path d="M43.9763 21.5399C43.9763 20.4775 44.8322 19.6892 46.027 19.6892C47.204 19.6892 48.0778 20.4775 48.0778 21.5399C48.0778 22.6194 47.204 23.3906 46.027 23.3906C44.8501 23.3906 43.9763 22.6023 43.9763 21.5399ZM47.1861 21.5399C47.1861 20.8544 46.6868 20.3918 46.0092 20.3918C45.3494 20.3918 44.8322 20.8544 44.8322 21.5399C44.8322 22.2253 45.3316 22.688 46.0092 22.688C46.6868 22.688 47.1861 22.2253 47.1861 21.5399Z" fill="#B2CAD8"/>
<path d="M52.1078 19.7405L50.485 23.339H49.6291L48.0241 19.7405H48.9514L50.0927 22.3109L51.234 19.7405H52.1078Z" fill="#B2CAD8"/>
<path d="M53.1776 19.7405H52.3216V23.339H53.1776V19.7405Z" fill="#B2CAD8"/>
<path d="M57.4219 19.7405V23.339H56.7086L54.8362 21.1456V23.339H53.998V19.7405H54.7113L56.5659 21.9167V19.7405H57.4219Z" fill="#B2CAD8"/>
<path d="M60.7387 21.4713H61.5233V22.9279C61.1132 23.2192 60.5426 23.3906 60.0076 23.3906C58.8307 23.3906 57.9747 22.6194 57.9747 21.5399C57.9747 20.4603 58.8307 19.6892 60.0254 19.6892C60.6852 19.6892 61.2202 19.912 61.5947 20.3061L61.0419 20.803C60.7744 20.5289 60.4534 20.3918 60.0789 20.3918C59.3478 20.3918 58.8485 20.8544 58.8485 21.5399C58.8485 22.2082 59.3478 22.688 60.0611 22.688C60.2929 22.688 60.5069 22.6537 60.7387 22.5338V21.4713Z" fill="#B2CAD8"/>
<path d="M63.4315 21.5399C63.4315 20.4603 64.2874 19.6892 65.4644 19.6892C66.1063 19.6892 66.6413 19.912 66.998 20.3232L66.4452 20.8202C66.1955 20.546 65.8745 20.3918 65.5 20.3918C64.8046 20.3918 64.3053 20.8716 64.3053 21.5399C64.3053 22.2253 64.8046 22.688 65.5 22.688C65.8745 22.688 66.1955 22.5509 66.4452 22.2596L66.998 22.7565C66.6413 23.1678 66.1063 23.3906 65.4465 23.3906C64.3053 23.3906 63.4315 22.6194 63.4315 21.5399Z" fill="#B2CAD8"/>
<path d="M69.8866 23.339L69.1733 22.3451H69.1198H68.3709V23.339H67.5149V19.7405H69.1377C70.1363 19.7405 70.7604 20.2374 70.7604 21.0428C70.7604 21.574 70.4751 21.9681 69.9936 22.1738L70.8318 23.3219H69.8866V23.339ZM69.0664 20.4259H68.3531V21.6768H69.0664C69.6013 21.6768 69.8688 21.4369 69.8688 21.0428C69.8688 20.6487 69.6013 20.4259 69.0664 20.4259Z" fill="#B2CAD8"/>
<path d="M73.0786 22.0538V23.339H72.2048V22.0538L70.7604 19.7405H71.6877L72.6863 21.3341L73.6849 19.7405H74.5231L73.0786 22.0538Z" fill="#B2CAD8"/>
<path d="M78.0003 21.0428C78.0003 21.8482 77.3762 22.3451 76.3776 22.3451H75.6286V23.339H74.7727V19.7405H76.3954C77.3762 19.7405 78.0003 20.2374 78.0003 21.0428ZM77.1266 21.0428C77.1266 20.6487 76.8591 20.4088 76.3241 20.4088H75.6108V21.6597H76.3241C76.8591 21.6597 77.1266 21.4369 77.1266 21.0428Z" fill="#B2CAD8"/>
<path d="M79.2129 20.4259H78.0182V19.7405H81.2637V20.4259H80.0689V23.339H79.2129V20.4259Z" fill="#B2CAD8"/>
<path d="M81.3529 21.5399C81.3529 20.4775 82.2089 19.6892 83.4036 19.6892C84.5806 19.6892 85.4544 20.4775 85.4544 21.5399C85.4544 22.6194 84.5806 23.3906 83.4036 23.3906C82.2267 23.3906 81.3529 22.6023 81.3529 21.5399ZM84.5806 21.5399C84.5806 20.8544 84.0813 20.3918 83.4036 20.3918C82.7438 20.3918 82.2267 20.8544 82.2267 21.5399C82.2267 22.2253 82.726 22.688 83.4036 22.688C84.0634 22.688 84.5806 22.2253 84.5806 21.5399Z" fill="#B2CAD8"/>
<path d="M88.3076 20.4088V21.3513H90.0374V22.0195H88.3076V23.339H87.4338V19.7405H90.2692V20.4088H88.3076Z" fill="#B2CAD8"/>
<path d="M90.4831 21.5399C90.4831 20.4775 91.339 19.6892 92.5338 19.6892C93.7107 19.6892 94.5845 20.4775 94.5845 21.5399C94.5845 22.6194 93.7107 23.3906 92.5338 23.3906C91.3569 23.3906 90.4831 22.6023 90.4831 21.5399ZM93.7107 21.5399C93.7107 20.8544 93.2114 20.3918 92.5338 20.3918C91.874 20.3918 91.3569 20.8544 91.3569 21.5399C91.3569 22.2253 91.8562 22.688 92.5338 22.688C93.2114 22.688 93.7107 22.2253 93.7107 21.5399Z" fill="#B2CAD8"/>
<path d="M97.527 23.339L96.8137 22.3451H96.7602H96.0113V23.339H95.1553V19.7405H96.778C97.7767 19.7405 98.4008 20.2374 98.4008 21.0428C98.4008 21.574 98.1155 21.9681 97.634 22.1738L98.4721 23.3219H97.527V23.339ZM96.7067 20.4259H95.9934V21.6768H96.7067C97.2417 21.6768 97.5092 21.4369 97.5092 21.0428C97.5092 20.6487 97.2417 20.4259 96.7067 20.4259Z" fill="#B2CAD8"/>
<path d="M104.624 19.7405L103.412 23.339H102.484L101.664 20.9057L100.808 23.339H99.8809L98.6504 19.7405H99.5599L100.398 22.2595L101.272 19.7405H102.074L102.93 22.2766L103.804 19.7405H104.624Z" fill="#B2CAD8"/>
<path d="M107.37 22.5679H105.641L105.302 23.339H104.41L106.069 19.7405H106.925L108.601 23.339H107.691L107.37 22.5679ZM107.085 21.9339L106.497 20.563L105.908 21.9339H107.085Z" fill="#B2CAD8"/>
<path d="M111.294 23.339L110.58 22.3451H110.545H109.778V23.339H108.922V19.7405H110.545C111.543 19.7405 112.167 20.2374 112.167 21.0428C112.167 21.574 111.882 21.9681 111.401 22.1738L112.239 23.3219H111.294V23.339ZM110.473 20.4259H109.76V21.6768H110.473C111.008 21.6768 111.276 21.4369 111.276 21.0428C111.276 20.6487 111.008 20.4259 110.473 20.4259Z" fill="#B2CAD8"/>
<path d="M112.738 19.7405H114.432C115.663 19.7405 116.501 20.443 116.501 21.5397C116.501 22.6193 115.663 23.339 114.432 23.339H112.738V19.7405ZM114.397 22.6536C115.145 22.6536 115.627 22.2252 115.627 21.5397C115.627 20.8543 115.145 20.4259 114.397 20.4259H113.612V22.6536H114.397Z" fill="#B2CAD8"/>
</svg>
