<svg width="19" height="18" viewBox="0 0 19 18" fill="none" xmlns="http://www.w3.org/2000/svg">
<path d="M9.04289 0C14.0347 0 18.0858 4.03182 18.0858 9C18.0858 13.9682 14.0347 18 9.04289 18C4.05104 18 0 13.9792 0 9C0 4.02081 4.05104 0 9.04289 0Z" fill="#FFCE47"/>
<path d="M9.0441 1.3877C13.2722 1.3877 16.7034 4.80263 16.7034 9.01071C16.7034 13.2188 13.2722 16.6337 9.0441 16.6337C4.81597 16.6337 1.38477 13.2188 1.38477 9.01071C1.39583 4.79161 4.81597 1.3877 9.0441 1.3877Z" fill="#FFCE47"/>
<path d="M9.04314 16.7879C4.72646 16.7879 1.21777 13.2959 1.21777 8.99968C1.21777 4.70347 4.73753 1.21143 9.04314 1.21143C13.3598 1.21143 16.8685 4.70347 16.8685 8.99968C16.8685 13.2959 13.3598 16.7879 9.04314 16.7879ZM9.04314 1.55292C4.91462 1.55292 1.56089 4.89074 1.56089 8.99968C1.56089 13.1086 4.91462 16.4464 9.04314 16.4464C13.1717 16.4464 16.5254 13.1086 16.5254 8.99968C16.5365 4.89074 13.1717 1.55292 9.04314 1.55292Z" fill="#1D2544"/>
<path d="M12.3637 12.1064H5.72267C5.63412 12.1064 5.55664 12.0293 5.55664 11.9412V6.13581C5.55664 5.16641 6.3425 4.38428 7.31652 4.38428H10.7699C11.7439 4.38428 12.5297 5.16641 12.5297 6.13581V11.9412C12.5297 12.0293 12.4523 12.1064 12.3637 12.1064ZM5.89976 11.7649H12.1977V6.13581C12.1977 5.35368 11.5557 4.72577 10.7809 4.72577H7.31652C6.53066 4.72577 5.89976 5.36469 5.89976 6.13581V11.7649Z" fill="#1D2544"/>
<path d="M7.27153 11.0716C6.88413 11.0716 6.57422 10.7632 6.57422 10.3776C6.57422 9.99204 6.88413 9.68359 7.27153 9.68359C7.65892 9.68359 7.96884 9.99204 7.96884 10.3776C7.96884 10.7521 7.65892 11.0716 7.27153 11.0716ZM7.27153 10.0141C7.0723 10.0141 6.90627 10.1793 6.90627 10.3776C6.90627 10.5759 7.0723 10.7411 7.27153 10.7411C7.47076 10.7411 7.63679 10.5759 7.63679 10.3776C7.62572 10.1683 7.47076 10.0141 7.27153 10.0141Z" fill="#1D2544"/>
<path d="M10.8252 11.0716C10.4378 11.0716 10.1279 10.7632 10.1279 10.3776C10.1279 9.99204 10.4378 9.68359 10.8252 9.68359C11.2126 9.68359 11.5225 9.99204 11.5225 10.3776C11.5225 10.7521 11.2126 11.0716 10.8252 11.0716ZM10.8252 10.0141C10.626 10.0141 10.46 10.1793 10.46 10.3776C10.46 10.5759 10.626 10.7411 10.8252 10.7411C11.0245 10.7411 11.1905 10.5759 11.1905 10.3776C11.1794 10.1683 11.0245 10.0141 10.8252 10.0141Z" fill="#1D2544"/>
<path d="M10.0496 5.61759H8.03517C7.94662 5.61759 7.86914 5.54047 7.86914 5.45235C7.86914 5.36422 7.94662 5.28711 8.03517 5.28711H10.0496C10.1382 5.28711 10.2156 5.36422 10.2156 5.45235C10.2267 5.55149 10.1492 5.61759 10.0496 5.61759Z" fill="#1D2544"/>
<path d="M12.2636 13.7146C12.2082 13.7146 12.1529 13.6926 12.1307 13.6486L11.0571 12.1394C11.0018 12.0623 11.0239 11.9631 11.1014 11.908C11.1789 11.853 11.2785 11.875 11.3338 11.9521L12.4075 13.4613C12.4628 13.5384 12.4407 13.6375 12.3632 13.6926C12.341 13.7036 12.2968 13.7146 12.2636 13.7146Z" fill="#1D2544"/>
<path d="M5.82115 13.7149C5.78795 13.7149 5.75474 13.7039 5.72154 13.6819C5.64406 13.6268 5.63299 13.5276 5.67726 13.4505L6.7509 11.9414C6.80624 11.8642 6.90586 11.8422 6.98333 11.8973C7.06081 11.9524 7.08295 12.0515 7.02761 12.1286L5.95397 13.6378C5.93184 13.6819 5.87649 13.7149 5.82115 13.7149Z" fill="#1D2544"/>
<path d="M6.08775 13.3404C6.05455 13.3404 6.02134 13.3294 5.98814 13.3073C5.91066 13.2523 5.89959 13.1531 5.94386 13.076L6.75186 11.9414C6.8072 11.8642 6.90682 11.8422 6.98429 11.8973C7.06177 11.9524 7.08391 12.0515 7.02857 12.1286L6.22057 13.2633C6.19844 13.3073 6.1431 13.3404 6.08775 13.3404Z" fill="#1D2544"/>
<path d="M12.3637 6.90665H5.72267C5.63412 6.90665 5.55664 6.82954 5.55664 6.74141C5.55664 6.65328 5.63412 6.57617 5.72267 6.57617H12.3637C12.4523 6.57617 12.5297 6.65328 12.5297 6.74141C12.5297 6.82954 12.4523 6.89563 12.3637 6.90665Z" fill="#1D2544"/>
<path d="M12.3637 9.02237H5.72267C5.63412 9.02237 5.55664 8.94526 5.55664 8.85713C5.55664 8.76901 5.63412 8.69189 5.72267 8.69189H12.3637C12.4523 8.69189 12.5297 8.76901 12.5297 8.85713C12.5297 8.94526 12.4523 9.02237 12.3637 9.02237Z" fill="#1D2544"/>
<path d="M7.27249 9.02188C7.22822 9.02188 7.19501 9.01086 7.16181 8.97782C7.08433 8.92274 7.08433 8.81258 7.13967 8.74648L7.90339 7.87622C7.9698 7.81013 8.06942 7.79911 8.13583 7.86521C8.20224 7.9313 8.21331 8.03045 8.1469 8.09654L7.38318 8.9668C7.36104 8.99985 7.31677 9.02188 7.27249 9.02188Z" fill="#1D2544"/>
<path d="M8.27868 9.02202C8.2344 9.02202 8.2012 9.011 8.16799 8.97796C8.10158 8.91186 8.09051 8.81272 8.15692 8.74662L9.69543 7.00611C9.76184 6.94001 9.86146 6.92899 9.92787 6.99509C9.99428 7.06119 10.0053 7.16033 9.93894 7.22642L8.40043 8.96694C8.36722 8.99999 8.32295 9.02202 8.27868 9.02202Z" fill="#1D2544"/>
<path d="M11.4661 12.6352H6.61817C6.52963 12.6352 6.45215 12.5581 6.45215 12.4699C6.45215 12.3818 6.52963 12.3047 6.61817 12.3047H11.4661C11.5547 12.3047 11.6322 12.3818 11.6322 12.4699C11.6432 12.5581 11.5658 12.6352 11.4661 12.6352Z" fill="#1D2544"/>
<path d="M11.9975 13.3398H6.08692C5.99838 13.3398 5.9209 13.2626 5.9209 13.1745C5.9209 13.0864 5.99838 13.0093 6.08692 13.0093H11.9975C12.086 13.0093 12.1635 13.0864 12.1635 13.1745C12.1745 13.2626 12.0971 13.3398 11.9975 13.3398Z" fill="#1D2544"/>
<path d="M9.04307 15.7639C5.30195 15.7639 2.24707 12.7345 2.24707 9.0001C2.24707 5.27672 5.29088 2.23633 9.04307 2.23633C12.7842 2.23633 15.8391 5.2657 15.8391 9.0001C15.8391 12.7345 12.7953 15.7639 9.04307 15.7639ZM9.04307 2.57782C5.47904 2.57782 2.59019 5.46399 2.59019 9.0001C2.59019 12.5472 5.49011 15.4224 9.04307 15.4224C12.6071 15.4224 15.496 12.5362 15.496 9.0001C15.507 5.45297 12.6071 2.57782 9.04307 2.57782Z" fill="#1D2544"/>
</svg>
